<svg width="500" height="400" viewBox="0 0 500 400" fill="none" xmlns="http://www.w3.org/2000/svg">
  <defs>
    <linearGradient id="heroGradient" x1="0%" y1="0%" x2="100%" y2="100%">
      <stop offset="0%" style="stop-color:#667eea;stop-opacity:0.2" />
      <stop offset="100%" style="stop-color:#764ba2;stop-opacity:0.2" />
    </linearGradient>
  </defs>
  
  <!-- Laptop -->
  <rect x="100" y="120" width="300" height="200" rx="8" fill="#E5E7EB"/>
  <rect x="110" y="130" width="280" height="160" rx="4" fill="#1F2937"/>
  
  <!-- Screen content (code) -->
  <rect x="130" y="150" width="80" height="8" rx="2" fill="#667eea" opacity="0.8"/>
  <rect x="130" y="165" width="120" height="8" rx="2" fill="#764ba2" opacity="0.6"/>
  <rect x="150" y="180" width="100" height="8" rx="2" fill="#667eea" opacity="0.5"/>
  <rect x="150" y="195" width="90" height="8" rx="2" fill="#764ba2" opacity="0.4"/>
  <rect x="130" y="210" width="110" height="8" rx="2" fill="#667eea" opacity="0.6"/>
  
  <rect x="270" y="150" width="90" height="8" rx="2" fill="#10B981" opacity="0.6"/>
  <rect x="270" y="165" width="70" height="8" rx="2" fill="#F59E0B" opacity="0.6"/>
  <rect x="270" y="180" width="80" height="8" rx="2" fill="#EF4444" opacity="0.6"/>
  
  <!-- Laptop base -->
  <path d="M 80 320 L 420 320 L 440 340 L 60 340 Z" fill="#9CA3AF"/>
  
  <!-- Floating elements -->
  <circle cx="380" cy="80" r="30" fill="url(#heroGradient)"/>
  <path d="M 370 80 L 380 70 L 390 80 L 380 90 Z" fill="#667eea"/>
  
  <rect x="50" y="250" width="40" height="40" rx="8" fill="url(#heroGradient)"/>
  <path d="M 60 270 L 70 260 L 80 270 L 70 280 Z" fill="#764ba2"/>
  
  <circle cx="420" cy="280" r="25" fill="url(#heroGradient)"/>
  <text x="420" y="290" font-family="monospace" font-size="20" fill="#667eea" text-anchor="middle">{}</text>
</svg>
